<svg xmlns="http://www.w3.org/2000/svg" viewBox="0 0 184.48 44.56"><defs><style>.cls-1{fill:#67777b;}.cls-2{fill:#8a9a9e;}</style></defs><title>airship-2tone-logo</title><g id="Layer_1" data-name="Layer 1"><g id="Assets"><g id="airship-logo-grey-2tone"><path id="Shape" class="cls-1" d="M100.67,11.62c-1.9-5-7.13-9.08-8.32-9.08h-.2c-1.2,0-6.42,4.08-8.32,9.08-.51,1.35,2,20.26,2.59,23.05a.7.7,0,0,0,.61.64h3c-.1-.93-.17-1.89-.24-2.82a75.68,75.68,0,0,1-.34-8c.51-1.25,1.83-2.92,2.81-2.92h0c1,0,2.29,1.67,2.81,2.9.22.54-.2,6.21-.66,10.8h3a.7.7,0,0,0,.61-.64c.63-2.77,3.15-21.65,2.64-23ZM95.22,16.5c0,.29-.12.32-.27.15a6,6,0,0,0-2.68-2.16h0a6.23,6.23,0,0,0-2.68,2.16c-.15.2-.24.17-.27-.15,0-.79-.07-2.82,0-2.95.68-2,2.56-3.68,3-3.68h0c.44,0,2.29,1.64,3,3.68a24.14,24.14,0,0,1,0,2.95Z"/><path id="Shape-2" data-name="Shape" class="cls-2" d="M81.16,40.42c-1-1-3.39-10.19-3.42-12.74a3.41,3.41,0,0,1,1-2.14A29,29,0,0,1,83.41,22c.46,4.54,1.66,11.37,1.9,12.89-.59,1.55-2.9,5.16-4.15,5.57Z"/><path id="Shape-3" data-name="Shape" class="cls-1" d="M103.38,40.42c1-1,3.39-10.19,3.42-12.74a3.41,3.41,0,0,0-1-2.14A29,29,0,0,0,101.13,22c-.46,4.54-1.66,11.37-1.9,12.89.59,1.55,2.88,5.16,4.15,5.57Z"/><path id="Shape-4" data-name="Shape" class="cls-2" d="M180.75,6.53h-14c-.17,2.09-3.56,6.38-5.76,7.66h12.18a5.94,5.94,0,0,0,5.13-2,17,17,0,0,0,3.47-4.69c.27-.56.07-1-1-1Z"/><path id="Shape-5" data-name="Shape" class="cls-1" d="M164.13,6.53c-.83,0-47.28-.07-50.48,0a5.75,5.75,0,0,0-3.93,1.55c-1.1,1-8.1,9.72-8.1,9.8,0,.56-.12,1.5-.15,2s.07.66.54,1c.22.17,1.24.83,1.61,1.13a74.14,74.14,0,0,1,6.47-6.29c1.56-1.3,2.76-1.55,6.05-1.55h40.44a5.94,5.94,0,0,0,5.13-2,17,17,0,0,0,3.47-4.69c.27-.56.07-1-1-1Z"/><path id="Shape-6" data-name="Shape" class="cls-2" d="M161.12,15.62h-14c-.17,2.09-3.17,5.94-5.39,7.22h12.18a5.94,5.94,0,0,0,5.13-2,13.84,13.84,0,0,0,3.1-4.22c.29-.59.1-1-1-1Z"/><path id="Shape-7" data-name="Shape" class="cls-1" d="M144.5,15.62c-.83,0-26.73-.1-29.8-.1A6.16,6.16,0,0,0,110,17.09c-1.1,1-5.66,5.48-5.61,5.52a21.46,21.46,0,0,1,3.12,3c.68-.59,1.29-1.06,2.22-1.77,1.61-1.25,3.42-1.1,6.69-1.1l20.89.1a5.94,5.94,0,0,0,5.13-2,13.84,13.84,0,0,0,3.1-4.22c.27-.59.07-1-1.07-1Z"/><path id="Shape-8" data-name="Shape" class="cls-2" d="M142.14,24.11h-14c-.17,2.09-3.17,5.94-5.39,7.22H135a5.94,5.94,0,0,0,5.13-2,13.84,13.84,0,0,0,3.1-4.22c.29-.59.1-1-1-1Z"/><path id="Shape-9" data-name="Shape" class="cls-1" d="M125.51,24.11c-.83,0-9.35-.1-12.42-.1a4.76,4.76,0,0,0-3.69,1.3A11.66,11.66,0,0,0,108,26.59c.32,1.13,0,2.87-.34,4.66.61,0,9.37.1,10.74.1a5.94,5.94,0,0,0,5.13-2,13.84,13.84,0,0,0,3.1-4.22c.27-.61.07-1-1.07-1Z"/><path id="Shape-10" data-name="Shape" class="cls-1" d="M94.15,24.95a4.17,4.17,0,0,0-1.86-2.33h0a4.17,4.17,0,0,0-1.86,2.33c-.1.32.56,13.53,1.17,15.71.12.42.51,1.2.71,1.2a2.67,2.67,0,0,0,.71-1.2c.51-1.77,1.27-15.39,1.17-15.71Z"/><path id="Shape-11" data-name="Shape" class="cls-2" d="M92.27,14.49h0a6.39,6.39,0,0,0-2.71,2.16c-.15.2-.24.17-.27-.15,0-.79-.07-2.82,0-2.95.68-2,2.56-3.68,3-3.68h0V2.56h-.1c-1.2,0-6.42,4.08-8.32,9.08-.51,1.35,2,20.26,2.59,23.05a.7.7,0,0,0,.61.64h3c-.1-.93-.17-1.89-.24-2.82a75.68,75.68,0,0,1-.34-8c.51-1.25,1.83-2.92,2.81-2.92h0V14.49Z"/><path id="Shape-12" data-name="Shape" class="cls-2" d="M92.25,22.64A4.17,4.17,0,0,0,90.39,25c-.1.32.56,13.53,1.17,15.71.12.42.51,1.2.71,1.2h0l0-19.25Z"/><path id="Shape-13" data-name="Shape" class="cls-2" d="M3.79,6.53h14c.17,2.09,3.56,6.38,5.76,7.66H11.33a5.94,5.94,0,0,1-5.13-2A17,17,0,0,1,2.74,7.52c-.29-.56-.1-1,1-1Z"/><path id="Shape-14" data-name="Shape" class="cls-2" d="M23.39,15.62h14c.17,2.09,3.17,5.94,5.39,7.22H30.57a5.94,5.94,0,0,1-5.13-2,13.84,13.84,0,0,1-3.1-4.22c-.27-.59-.1-1,1-1Z"/><path id="Shape-15" data-name="Shape" class="cls-1" d="M40,15.62c.83,0,26.73-.1,29.8-.1a6.16,6.16,0,0,1,4.66,1.57c1.1,1,5.66,5.48,5.61,5.52a21.46,21.46,0,0,0-3.12,3c-.68-.59-1.29-1.06-2.22-1.77-1.61-1.25-3.42-1.1-6.69-1.1l-20.89.1a5.94,5.94,0,0,1-5.13-2,13.84,13.84,0,0,1-3.1-4.22c-.24-.59-.07-1,1.07-1Z"/><path id="Shape-16" data-name="Shape" class="cls-2" d="M42.38,24.11h14c.17,2.09,3.17,5.94,5.39,7.22H49.56a5.94,5.94,0,0,1-5.13-2,13.84,13.84,0,0,1-3.1-4.22c-.27-.59-.07-1,1-1Z"/><path id="Shape-17" data-name="Shape" class="cls-1" d="M59,24.11c.83,0,9.35-.1,12.42-.1a4.76,4.76,0,0,1,3.69,1.3,11.66,11.66,0,0,1,1.44,1.28c-.32,1.13,0,2.87.34,4.66-.61,0-9.37.1-10.74.1a5.94,5.94,0,0,1-5.13-2A13.84,13.84,0,0,1,58,25.14c-.27-.61-.07-1,1.07-1Z"/><path id="Shape-18" data-name="Shape" class="cls-1" d="M20.41,6.53c.83,0,47.28-.07,50.48,0a5.75,5.75,0,0,1,3.93,1.55c1.1,1,8.1,9.72,8.1,9.8,0,.56.12,1.5.15,2s-.07.66-.54,1c-.22.17-1.24.83-1.61,1.13a74.14,74.14,0,0,0-6.47-6.29c-1.56-1.3-2.76-1.55-6.05-1.55H28a5.94,5.94,0,0,1-5.13-2,17,17,0,0,1-3.47-4.69c-.27-.56-.1-1,1-1Z"/></g></g></g></svg>